<?xml version="1.0" encoding="UTF-8"?><svg xmlns="http://www.w3.org/2000/svg" xmlns:xlink="http://www.w3.org/1999/xlink" width="375pt" zoomAndPan="magnify" viewBox="0 0 375 374.999991" height="374.999991pt" preserveAspectRatio="xMidYMid meet" version="1.2"><defs><g/></defs><g xml:id="surface1" id="surface1"><path style="fill:none;stroke-width:1;stroke-linecap:butt;stroke-linejoin:miter;stroke:rgb(100%,100%,97.648621%);stroke-opacity:1;stroke-miterlimit:4;" d="M -0.000864064 0.000377034 L 86.528647 0.000377034 " transform="matrix(0.000000000000000138,2.253657,-2.25,0.000000000000000138,83.368036,89.783197)"/><path style="fill:none;stroke-width:1;stroke-linecap:butt;stroke-linejoin:miter;stroke:rgb(100%,100%,97.648621%);stroke-opacity:1;stroke-miterlimit:4;" d="M -0.00032984 -0.000219489 L 85.525701 -0.000219489 " transform="matrix(0.000000000000000138,2.253837,-2.25,0.000000000000000138,291.624506,90.5359)"/><g style="fill:rgb(99.21875%,61.959839%,70.979309%);fill-opacity:1;"><g transform="translate(119.995785, 245.089446)"><path style="stroke:none;" d="M 9.882812 0 L 14.402344 0 C 13.414062 -11.863281 13.273438 -17.511719 13.273438 -27.820312 L 13.273438 -105.765625 L 62.132812 2.824219 L 64.675781 2.824219 L 111.132812 -106.191406 L 111.132812 -27.820312 C 111.132812 -17.511719 110.992188 -11.863281 110.144531 0 L 126.242188 0 C 125.253906 -11.863281 125.113281 -17.511719 125.113281 -27.820312 L 125.113281 -85.148438 C 125.113281 -95.457031 125.253906 -101.105469 126.242188 -112.96875 L 111.695312 -112.96875 L 69.617188 -15.957031 L 25.417969 -112.96875 L 9.882812 -112.96875 C 10.730469 -101.105469 11.015625 -95.457031 11.015625 -85.148438 L 11.015625 -27.820312 C 11.015625 -17.511719 10.730469 -11.863281 9.882812 0 Z M 9.882812 0 "/></g></g><path style=" stroke:none;fill-rule:nonzero;fill:rgb(100%,100%,97.648621%);fill-opacity:1;" d="M 238.363281 278.503906 C 237.96875 278.503906 237.578125 278.542969 237.191406 278.617188 C 236.804688 278.695312 236.429688 278.808594 236.066406 278.960938 C 235.703125 279.109375 235.355469 279.296875 235.027344 279.515625 C 234.699219 279.734375 234.398438 279.980469 234.121094 280.261719 C 233.839844 280.539062 233.59375 280.84375 233.371094 281.167969 C 233.152344 281.496094 232.96875 281.84375 232.820312 282.207031 C 232.667969 282.570312 232.554688 282.945312 232.476562 283.332031 C 232.398438 283.71875 232.363281 284.109375 232.363281 284.503906 C 232.363281 284.898438 232.398438 285.289062 232.476562 285.671875 C 232.554688 286.058594 232.667969 286.433594 232.820312 286.800781 C 232.96875 287.164062 233.152344 287.507812 233.371094 287.835938 C 233.59375 288.164062 233.839844 288.46875 234.121094 288.746094 C 234.398438 289.023438 234.699219 289.273438 235.027344 289.492188 C 235.355469 289.710938 235.703125 289.894531 236.066406 290.046875 C 236.429688 290.195312 236.804688 290.3125 237.191406 290.386719 C 237.578125 290.464844 237.96875 290.503906 238.363281 290.503906 C 238.753906 290.503906 239.144531 290.464844 239.53125 290.386719 C 239.917969 290.3125 240.292969 290.195312 240.65625 290.046875 C 241.023438 289.894531 241.367188 289.710938 241.695312 289.492188 C 242.023438 289.273438 242.324219 289.023438 242.605469 288.746094 C 242.882812 288.46875 243.132812 288.164062 243.351562 287.835938 C 243.570312 287.507812 243.753906 287.164062 243.90625 286.800781 C 244.054688 286.433594 244.167969 286.058594 244.246094 285.671875 C 244.324219 285.289062 244.363281 284.898438 244.363281 284.503906 C 244.363281 284.109375 244.324219 283.71875 244.246094 283.332031 C 244.167969 282.945312 244.054688 282.570312 243.90625 282.207031 C 243.753906 281.84375 243.570312 281.496094 243.351562 281.167969 C 243.132812 280.84375 242.882812 280.539062 242.605469 280.261719 C 242.324219 279.980469 242.023438 279.734375 241.695312 279.515625 C 241.367188 279.296875 241.023438 279.109375 240.65625 278.960938 C 240.292969 278.808594 239.917969 278.695312 239.53125 278.617188 C 239.144531 278.542969 238.753906 278.503906 238.363281 278.503906 Z M 238.363281 278.503906 "/><path style="fill:none;stroke-width:1;stroke-linecap:butt;stroke-linejoin:miter;stroke:rgb(100%,100%,97.648621%);stroke-opacity:1;stroke-miterlimit:4;" d="M 0.000300454 -0.000837976 L 61.576692 -0.000837976 " transform="matrix(2.253426,0,0,2.25,82.245417,284.087823)"/><path style="fill:none;stroke-width:1;stroke-linecap:butt;stroke-linejoin:miter;stroke:rgb(100%,100%,97.648621%);stroke-opacity:1;stroke-miterlimit:4;" d="M 0.000583256 -0.000837976 L 17.70024 -0.000837976 " transform="matrix(2.246027,0,0,2.25,252.928377,284.087823)"/><path style="fill:none;stroke-width:1;stroke-linecap:butt;stroke-linejoin:miter;stroke:rgb(100%,100%,97.648621%);stroke-opacity:1;stroke-miterlimit:4;" d="M -0.000309717 -0.000206142 L 61.577816 -0.000206142 " transform="matrix(-2.253426,-0.000000000000000276,0.000000000000000276,-2.25,292.749302,90.909692)"/><path style=" stroke:none;fill-rule:nonzero;fill:rgb(100%,100%,97.648621%);fill-opacity:1;" d="M 136.632812 96.496094 C 137.027344 96.496094 137.417969 96.457031 137.804688 96.378906 C 138.191406 96.300781 138.566406 96.1875 138.929688 96.039062 C 139.292969 95.886719 139.640625 95.703125 139.964844 95.484375 C 140.292969 95.265625 140.597656 95.015625 140.875 94.738281 C 141.152344 94.457031 141.402344 94.15625 141.621094 93.828125 C 141.839844 93.5 142.027344 93.15625 142.175781 92.789062 C 142.328125 92.425781 142.441406 92.050781 142.519531 91.664062 C 142.59375 91.277344 142.632812 90.886719 142.632812 90.496094 C 142.632812 90.101562 142.59375 89.710938 142.519531 89.324219 C 142.441406 88.9375 142.328125 88.5625 142.175781 88.199219 C 142.027344 87.835938 141.839844 87.488281 141.621094 87.160156 C 141.402344 86.832031 141.152344 86.53125 140.875 86.25 C 140.597656 85.972656 140.292969 85.722656 139.964844 85.503906 C 139.640625 85.285156 139.292969 85.101562 138.929688 84.949219 C 138.566406 84.800781 138.191406 84.6875 137.804688 84.609375 C 137.417969 84.53125 137.027344 84.496094 136.632812 84.496094 C 136.238281 84.496094 135.847656 84.53125 135.460938 84.609375 C 135.074219 84.6875 134.699219 84.800781 134.335938 84.949219 C 133.972656 85.101562 133.628906 85.285156 133.300781 85.503906 C 132.972656 85.722656 132.667969 85.972656 132.390625 86.25 C 132.113281 86.53125 131.863281 86.832031 131.644531 87.160156 C 131.425781 87.488281 131.242188 87.835938 131.089844 88.199219 C 130.9375 88.5625 130.824219 88.9375 130.75 89.324219 C 130.671875 89.710938 130.632812 90.101562 130.632812 90.496094 C 130.632812 90.886719 130.671875 91.277344 130.75 91.664062 C 130.824219 92.050781 130.9375 92.425781 131.089844 92.789062 C 131.242188 93.15625 131.425781 93.5 131.644531 93.828125 C 131.863281 94.15625 132.113281 94.457031 132.390625 94.738281 C 132.667969 95.015625 132.972656 95.265625 133.300781 95.484375 C 133.628906 95.703125 133.972656 95.886719 134.335938 96.039062 C 134.699219 96.1875 135.074219 96.300781 135.460938 96.378906 C 135.847656 96.457031 136.238281 96.496094 136.632812 96.496094 Z M 136.632812 96.496094 "/><path style="fill:none;stroke-width:1;stroke-linecap:butt;stroke-linejoin:miter;stroke:rgb(100%,100%,97.648621%);stroke-opacity:1;stroke-miterlimit:4;" d="M -0.0000286481 -0.000206142 L 17.201334 -0.000206142 " transform="matrix(-2.267716,-0.000000000000000278,0.000000000000000276,-2.25,122.066341,90.909692)"/></g></svg>